<?xml version="1.0" encoding="utf-8"?>
<!-- Generator: Adobe Illustrator 27.0.0, SVG Export Plug-In . SVG Version: 6.00 Build 0)  -->
<svg version="1.1" id="Layer_1" xmlns="http://www.w3.org/2000/svg" xmlns:xlink="http://www.w3.org/1999/xlink" x="0px" y="0px"
	 viewBox="0 0 686.4 207.4" style="enable-background:new 0 0 686.4 207.4;" xml:space="preserve">
<style type="text/css">
	.st0{clip-path:url(#SVGID_00000044879918450213306530000012440304923839138203_);fill:#6BC0F9;}
	.st1{clip-path:url(#SVGID_00000044879918450213306530000012440304923839138203_);fill:#6ABFF9;}
	.st2{clip-path:url(#SVGID_00000044879918450213306530000012440304923839138203_);fill:#6ABEF9;}
	.st3{clip-path:url(#SVGID_00000044879918450213306530000012440304923839138203_);fill:#69BDF9;}
	.st4{clip-path:url(#SVGID_00000044879918450213306530000012440304923839138203_);fill:#68BCF9;}
	.st5{clip-path:url(#SVGID_00000044879918450213306530000012440304923839138203_);fill:#68BBF9;}
	.st6{clip-path:url(#SVGID_00000044879918450213306530000012440304923839138203_);fill:#67BAF9;}
	.st7{clip-path:url(#SVGID_00000044879918450213306530000012440304923839138203_);fill:#66B9F9;}
	.st8{clip-path:url(#SVGID_00000044879918450213306530000012440304923839138203_);fill:#65B8F9;}
	.st9{clip-path:url(#SVGID_00000044879918450213306530000012440304923839138203_);fill:#65B7F9;}
	.st10{clip-path:url(#SVGID_00000044879918450213306530000012440304923839138203_);fill:#64B6F9;}
	.st11{clip-path:url(#SVGID_00000044879918450213306530000012440304923839138203_);fill:#63B5F9;}
	.st12{clip-path:url(#SVGID_00000044879918450213306530000012440304923839138203_);fill:#63B4F9;}
	.st13{clip-path:url(#SVGID_00000044879918450213306530000012440304923839138203_);fill:#62B3F9;}
	.st14{clip-path:url(#SVGID_00000044879918450213306530000012440304923839138203_);fill:#61B2F8;}
	.st15{clip-path:url(#SVGID_00000044879918450213306530000012440304923839138203_);fill:#61B1F8;}
	.st16{clip-path:url(#SVGID_00000044879918450213306530000012440304923839138203_);fill:#60B0F8;}
	.st17{clip-path:url(#SVGID_00000044879918450213306530000012440304923839138203_);fill:#5FAFF8;}
	.st18{clip-path:url(#SVGID_00000044879918450213306530000012440304923839138203_);fill:#5EAEF8;}
	.st19{clip-path:url(#SVGID_00000044879918450213306530000012440304923839138203_);fill:#5EADF8;}
	.st20{clip-path:url(#SVGID_00000044879918450213306530000012440304923839138203_);fill:#5DACF8;}
	.st21{clip-path:url(#SVGID_00000044879918450213306530000012440304923839138203_);fill:#5CABF8;}
	.st22{clip-path:url(#SVGID_00000044879918450213306530000012440304923839138203_);fill:#5CAAF8;}
	.st23{clip-path:url(#SVGID_00000044879918450213306530000012440304923839138203_);fill:#5BA9F8;}
	.st24{clip-path:url(#SVGID_00000044879918450213306530000012440304923839138203_);fill:#5AA8F8;}
	.st25{clip-path:url(#SVGID_00000044879918450213306530000012440304923839138203_);fill:#5AA7F8;}
	.st26{clip-path:url(#SVGID_00000044879918450213306530000012440304923839138203_);fill:#59A6F8;}
	.st27{clip-path:url(#SVGID_00000044879918450213306530000012440304923839138203_);fill:#58A5F8;}
	.st28{clip-path:url(#SVGID_00000044879918450213306530000012440304923839138203_);fill:#58A4F8;}
	.st29{clip-path:url(#SVGID_00000044879918450213306530000012440304923839138203_);fill:#57A3F8;}
	.st30{clip-path:url(#SVGID_00000044879918450213306530000012440304923839138203_);fill:#56A2F8;}
	.st31{clip-path:url(#SVGID_00000044879918450213306530000012440304923839138203_);fill:#55A1F8;}
	.st32{clip-path:url(#SVGID_00000044879918450213306530000012440304923839138203_);fill:#55A0F8;}
	.st33{clip-path:url(#SVGID_00000044879918450213306530000012440304923839138203_);fill:#549FF8;}
	.st34{clip-path:url(#SVGID_00000044879918450213306530000012440304923839138203_);fill:#539EF8;}
	.st35{clip-path:url(#SVGID_00000044879918450213306530000012440304923839138203_);fill:#539DF8;}
	.st36{clip-path:url(#SVGID_00000044879918450213306530000012440304923839138203_);fill:#529CF8;}
	.st37{clip-path:url(#SVGID_00000044879918450213306530000012440304923839138203_);fill:#519BF8;}
	.st38{clip-path:url(#SVGID_00000044879918450213306530000012440304923839138203_);fill:#519AF8;}
	.st39{clip-path:url(#SVGID_00000044879918450213306530000012440304923839138203_);fill:#5099F8;}
	.st40{clip-path:url(#SVGID_00000044879918450213306530000012440304923839138203_);fill:#4F98F7;}
	.st41{clip-path:url(#SVGID_00000044879918450213306530000012440304923839138203_);fill:#4E97F7;}
	.st42{clip-path:url(#SVGID_00000044879918450213306530000012440304923839138203_);fill:#4E96F7;}
	.st43{clip-path:url(#SVGID_00000044879918450213306530000012440304923839138203_);fill:#4D95F7;}
	.st44{clip-path:url(#SVGID_00000044879918450213306530000012440304923839138203_);fill:#4C94F7;}
	.st45{clip-path:url(#SVGID_00000044879918450213306530000012440304923839138203_);fill:#4C93F7;}
	.st46{clip-path:url(#SVGID_00000044879918450213306530000012440304923839138203_);fill:#4B92F7;}
	.st47{clip-path:url(#SVGID_00000044879918450213306530000012440304923839138203_);fill:#4A91F7;}
	.st48{clip-path:url(#SVGID_00000044879918450213306530000012440304923839138203_);fill:#4A90F7;}
	.st49{clip-path:url(#SVGID_00000044879918450213306530000012440304923839138203_);fill:#498FF7;}
	.st50{clip-path:url(#SVGID_00000044879918450213306530000012440304923839138203_);fill:#488EF7;}
	.st51{clip-path:url(#SVGID_00000044879918450213306530000012440304923839138203_);fill:#488DF7;}
	.st52{clip-path:url(#SVGID_00000044879918450213306530000012440304923839138203_);fill:#478CF7;}
	.st53{clip-path:url(#SVGID_00000044879918450213306530000012440304923839138203_);fill:#468AF7;}
	.st54{clip-path:url(#SVGID_00000044879918450213306530000012440304923839138203_);fill:#4589F7;}
	.st55{clip-path:url(#SVGID_00000044879918450213306530000012440304923839138203_);fill:#4588F7;}
	.st56{clip-path:url(#SVGID_00000044879918450213306530000012440304923839138203_);fill:#4487F7;}
	.st57{clip-path:url(#SVGID_00000044879918450213306530000012440304923839138203_);fill:#4386F7;}
	.st58{clip-path:url(#SVGID_00000044879918450213306530000012440304923839138203_);fill:#4385F7;}
	.st59{clip-path:url(#SVGID_00000044879918450213306530000012440304923839138203_);fill:#4284F7;}
	.st60{clip-path:url(#SVGID_00000044879918450213306530000012440304923839138203_);fill:#4183F7;}
	.st61{clip-path:url(#SVGID_00000044879918450213306530000012440304923839138203_);fill:#4182F7;}
	.st62{clip-path:url(#SVGID_00000044879918450213306530000012440304923839138203_);fill:#4081F7;}
	.st63{clip-path:url(#SVGID_00000044879918450213306530000012440304923839138203_);fill:#3F80F7;}
	.st64{clip-path:url(#SVGID_00000044879918450213306530000012440304923839138203_);fill:#3F7FF7;}
	.st65{clip-path:url(#SVGID_00000044879918450213306530000012440304923839138203_);fill:#3E7EF7;}
	.st66{clip-path:url(#SVGID_00000044879918450213306530000012440304923839138203_);fill:#3D7DF6;}
	.st67{clip-path:url(#SVGID_00000044879918450213306530000012440304923839138203_);fill:#3C7CF6;}
	.st68{clip-path:url(#SVGID_00000044879918450213306530000012440304923839138203_);fill:#3C7BF6;}
	.st69{clip-path:url(#SVGID_00000044879918450213306530000012440304923839138203_);fill:#3B7AF6;}
	.st70{clip-path:url(#SVGID_00000044879918450213306530000012440304923839138203_);fill:#3A79F6;}
	.st71{clip-path:url(#SVGID_00000044879918450213306530000012440304923839138203_);fill:#3A78F6;}
	.st72{clip-path:url(#SVGID_00000044879918450213306530000012440304923839138203_);fill:#3977F6;}
	.st73{clip-path:url(#SVGID_00000044879918450213306530000012440304923839138203_);fill:#3876F6;}
	.st74{clip-path:url(#SVGID_00000044879918450213306530000012440304923839138203_);fill:#3875F6;}
	.st75{clip-path:url(#SVGID_00000044879918450213306530000012440304923839138203_);fill:#3774F6;}
	.st76{clip-path:url(#SVGID_00000044879918450213306530000012440304923839138203_);fill:#3673F6;}
	.st77{clip-path:url(#SVGID_00000044879918450213306530000012440304923839138203_);fill:#3572F6;}
	.st78{clip-path:url(#SVGID_00000044879918450213306530000012440304923839138203_);fill:#3571F6;}
	.st79{clip-path:url(#SVGID_00000044879918450213306530000012440304923839138203_);fill:#3470F6;}
	.st80{clip-path:url(#SVGID_00000044879918450213306530000012440304923839138203_);fill:#336FF6;}
	.st81{clip-path:url(#SVGID_00000044879918450213306530000012440304923839138203_);fill:#336EF6;}
	.st82{clip-path:url(#SVGID_00000044879918450213306530000012440304923839138203_);fill:#326DF6;}
	.st83{clip-path:url(#SVGID_00000044879918450213306530000012440304923839138203_);fill:#316CF6;}
	.st84{clip-path:url(#SVGID_00000044879918450213306530000012440304923839138203_);fill:#316BF6;}
	.st85{clip-path:url(#SVGID_00000044879918450213306530000012440304923839138203_);fill:#306AF6;}
	.st86{clip-path:url(#SVGID_00000044879918450213306530000012440304923839138203_);fill:#2F69F6;}
	.st87{clip-path:url(#SVGID_00000044879918450213306530000012440304923839138203_);fill:#2F68F6;}
	.st88{clip-path:url(#SVGID_00000044879918450213306530000012440304923839138203_);fill:#2E67F6;}
	.st89{clip-path:url(#SVGID_00000044879918450213306530000012440304923839138203_);fill:#2D66F6;}
	.st90{clip-path:url(#SVGID_00000044879918450213306530000012440304923839138203_);fill:#2C65F6;}
	.st91{clip-path:url(#SVGID_00000044879918450213306530000012440304923839138203_);fill:#2C64F6;}
	.st92{clip-path:url(#SVGID_00000044879918450213306530000012440304923839138203_);fill:#2B63F5;}
	.st93{clip-path:url(#SVGID_00000044879918450213306530000012440304923839138203_);fill:#2A62F5;}
	.st94{clip-path:url(#SVGID_00000044879918450213306530000012440304923839138203_);fill:#2A61F5;}
	.st95{clip-path:url(#SVGID_00000044879918450213306530000012440304923839138203_);fill:#2960F5;}
	.st96{clip-path:url(#SVGID_00000044879918450213306530000012440304923839138203_);fill:#285FF5;}
	.st97{clip-path:url(#SVGID_00000044879918450213306530000012440304923839138203_);fill:#285EF5;}
	.st98{clip-path:url(#SVGID_00000044879918450213306530000012440304923839138203_);fill:#275DF5;}
	.st99{clip-path:url(#SVGID_00000044879918450213306530000012440304923839138203_);fill:#265CF5;}
	.st100{clip-path:url(#SVGID_00000044879918450213306530000012440304923839138203_);fill:#255BF5;}
	.st101{clip-path:url(#SVGID_00000044879918450213306530000012440304923839138203_);fill:#255AF5;}
	.st102{clip-path:url(#SVGID_00000044879918450213306530000012440304923839138203_);fill:#2459F5;}
	.st103{clip-path:url(#SVGID_00000044879918450213306530000012440304923839138203_);fill:#2358F5;}
	.st104{clip-path:url(#SVGID_00000044879918450213306530000012440304923839138203_);fill:#2357F5;}
	.st105{clip-path:url(#SVGID_00000044879918450213306530000012440304923839138203_);fill:#2256F5;}
	.st106{fill:#081654;}
</style>
<g>
	<g>
		<defs>
			<path id="SVGID_1_" d="M133.7,205.2c-5.5-1.5-8.3-5.4-10.1-10.7c-7.1-21.9-14.5-43.7-21.8-65.5c-0.5-1.4-0.3-2.4,0.6-3.6
				c14.4-20.5,28.7-41,43-61.4c0.4-0.6,0.9-1.3,1.1-2.3c-0.5,0.3-1.1,0.7-1.6,1c-20.7,14.4-41.4,28.7-62.1,43.1
				c-1.3,0.9-2.4,1-3.9,0.5c-22.2-7.5-44.5-14.8-66.8-22.3C2.9,81,0.2,70,7.3,63.8c1.5-1.3,3.4-2.2,5.3-2.8
				C40,52.1,67.4,43.3,94.8,34.5c30.9-9.9,61.8-19.8,92.6-29.9c7.9-2.6,15.3,0,17.7,8.7c0,1.3,0,2.6,0,3.9c-0.3,0.9-0.6,1.9-0.9,2.8
				c-18.7,58-37.4,116-56,174c-1.7,5.5-4.4,9.6-10.1,11.2C136.6,205.2,135.2,205.2,133.7,205.2z"/>
		</defs>
		<clipPath id="SVGID_00000178192275085836297230000009597694884987114925_">
			<use xlink:href="#SVGID_1_"  style="overflow:visible;"/>
		</clipPath>
		<polygon style="clip-path:url(#SVGID_00000178192275085836297230000009597694884987114925_);fill:#6BC0F9;" points="0.2,91.3 
			58.7,205.2 0.2,205.2 		"/>
		<polygon style="clip-path:url(#SVGID_00000178192275085836297230000009597694884987114925_);fill:#6BC0F9;" points="0.2,87.1 
			60.9,205.2 58.7,205.2 0.2,91.3 		"/>
		<polygon style="clip-path:url(#SVGID_00000178192275085836297230000009597694884987114925_);fill:#6ABFF9;" points="0.2,82.9 
			63,205.2 60.9,205.2 0.2,87.1 		"/>
		<polygon style="clip-path:url(#SVGID_00000178192275085836297230000009597694884987114925_);fill:#6ABEF9;" points="0.2,78.8 
			65.2,205.2 63,205.2 0.2,82.9 		"/>
		<polygon style="clip-path:url(#SVGID_00000178192275085836297230000009597694884987114925_);fill:#69BDF9;" points="0.2,74.6 
			67.3,205.2 65.2,205.2 0.2,78.8 		"/>
		<polygon style="clip-path:url(#SVGID_00000178192275085836297230000009597694884987114925_);fill:#68BCF9;" points="0.2,70.5 
			69.4,205.2 67.3,205.2 0.2,74.6 		"/>
		<polygon style="clip-path:url(#SVGID_00000178192275085836297230000009597694884987114925_);fill:#68BBF9;" points="0.2,66.3 
			71.6,205.2 69.4,205.2 0.2,70.5 		"/>
		<polygon style="clip-path:url(#SVGID_00000178192275085836297230000009597694884987114925_);fill:#67BAF9;" points="0.2,64.7 
			1.2,64.2 73.7,205.2 71.6,205.2 0.2,66.3 		"/>
		<polygon style="clip-path:url(#SVGID_00000178192275085836297230000009597694884987114925_);fill:#66B9F9;" points="1.2,64.2 
			2.9,63.3 75.9,205.2 73.7,205.2 		"/>
		<polygon style="clip-path:url(#SVGID_00000178192275085836297230000009597694884987114925_);fill:#65B8F9;" points="2.9,63.3 
			4.6,62.4 78,205.2 75.9,205.2 		"/>
		<polygon style="clip-path:url(#SVGID_00000178192275085836297230000009597694884987114925_);fill:#65B7F9;" points="4.6,62.4 
			6.3,61.6 80.1,205.2 78,205.2 		"/>
		<polygon style="clip-path:url(#SVGID_00000178192275085836297230000009597694884987114925_);fill:#64B6F9;" points="6.3,61.6 
			8,60.7 82.3,205.2 80.1,205.2 		"/>
		<polygon style="clip-path:url(#SVGID_00000178192275085836297230000009597694884987114925_);fill:#63B5F9;" points="8,60.7 
			9.7,59.8 84.4,205.2 82.3,205.2 		"/>
		<polygon style="clip-path:url(#SVGID_00000178192275085836297230000009597694884987114925_);fill:#63B4F9;" points="9.7,59.8 
			11.4,58.9 86.6,205.2 84.4,205.2 		"/>
		<polygon style="clip-path:url(#SVGID_00000178192275085836297230000009597694884987114925_);fill:#62B3F9;" points="11.4,58.9 
			13.1,58.1 88.7,205.2 86.6,205.2 		"/>
		<polygon style="clip-path:url(#SVGID_00000178192275085836297230000009597694884987114925_);fill:#61B2F8;" points="13.1,58.1 
			14.8,57.2 90.9,205.2 88.7,205.2 		"/>
		<polygon style="clip-path:url(#SVGID_00000178192275085836297230000009597694884987114925_);fill:#61B1F8;" points="14.8,57.2 
			16.5,56.3 93,205.2 90.9,205.2 		"/>
		<polygon style="clip-path:url(#SVGID_00000178192275085836297230000009597694884987114925_);fill:#60B0F8;" points="16.5,56.3 
			18.2,55.5 95.1,205.2 93,205.2 		"/>
		<polygon style="clip-path:url(#SVGID_00000178192275085836297230000009597694884987114925_);fill:#5FAFF8;" points="18.2,55.5 
			19.9,54.6 97.3,205.2 95.1,205.2 		"/>
		<polygon style="clip-path:url(#SVGID_00000178192275085836297230000009597694884987114925_);fill:#5EAEF8;" points="19.9,54.6 
			21.6,53.7 99.4,205.2 97.3,205.2 		"/>
		<polygon style="clip-path:url(#SVGID_00000178192275085836297230000009597694884987114925_);fill:#5EADF8;" points="21.6,53.7 
			23.2,52.8 101.6,205.2 99.4,205.2 		"/>
		<polygon style="clip-path:url(#SVGID_00000178192275085836297230000009597694884987114925_);fill:#5DACF8;" points="23.2,52.8 
			24.9,52 103.7,205.2 101.6,205.2 		"/>
		<polygon style="clip-path:url(#SVGID_00000178192275085836297230000009597694884987114925_);fill:#5CABF8;" points="24.9,52 
			26.6,51.1 105.8,205.2 103.7,205.2 		"/>
		<polygon style="clip-path:url(#SVGID_00000178192275085836297230000009597694884987114925_);fill:#5CAAF8;" points="26.6,51.1 
			28.3,50.2 108,205.2 105.8,205.2 		"/>
		<polygon style="clip-path:url(#SVGID_00000178192275085836297230000009597694884987114925_);fill:#5BA9F8;" points="28.3,50.2 
			30,49.4 110.1,205.2 108,205.2 		"/>
		<polygon style="clip-path:url(#SVGID_00000178192275085836297230000009597694884987114925_);fill:#5AA8F8;" points="30,49.4 
			31.7,48.5 112.3,205.2 110.1,205.2 		"/>
		<polygon style="clip-path:url(#SVGID_00000178192275085836297230000009597694884987114925_);fill:#5AA7F8;" points="31.7,48.5 
			33.4,47.6 114.4,205.2 112.3,205.2 		"/>
		<polygon style="clip-path:url(#SVGID_00000178192275085836297230000009597694884987114925_);fill:#59A6F8;" points="33.4,47.6 
			35.1,46.8 116.5,205.2 114.4,205.2 		"/>
		<polygon style="clip-path:url(#SVGID_00000178192275085836297230000009597694884987114925_);fill:#58A5F8;" points="35.1,46.8 
			36.8,45.9 118.7,205.2 116.5,205.2 		"/>
		<polygon style="clip-path:url(#SVGID_00000178192275085836297230000009597694884987114925_);fill:#58A4F8;" points="36.8,45.9 
			38.5,45 120.8,205.2 118.7,205.2 		"/>
		<polygon style="clip-path:url(#SVGID_00000178192275085836297230000009597694884987114925_);fill:#57A3F8;" points="38.5,45 
			40.2,44.1 123,205.2 120.8,205.2 		"/>
		<polygon style="clip-path:url(#SVGID_00000178192275085836297230000009597694884987114925_);fill:#56A2F8;" points="40.2,44.1 
			41.9,43.3 125.1,205.2 123,205.2 		"/>
		<polygon style="clip-path:url(#SVGID_00000178192275085836297230000009597694884987114925_);fill:#55A1F8;" points="41.9,43.3 
			43.6,42.4 127.2,205.2 125.1,205.2 		"/>
		<polygon style="clip-path:url(#SVGID_00000178192275085836297230000009597694884987114925_);fill:#55A0F8;" points="43.6,42.4 
			45.3,41.5 129.4,205.2 127.2,205.2 		"/>
		<polygon style="clip-path:url(#SVGID_00000178192275085836297230000009597694884987114925_);fill:#549FF8;" points="45.3,41.5 
			47,40.7 131.5,205.2 129.4,205.2 		"/>
		<polygon style="clip-path:url(#SVGID_00000178192275085836297230000009597694884987114925_);fill:#539EF8;" points="47,40.7 
			48.6,39.8 133.7,205.2 131.5,205.2 		"/>
		<polygon style="clip-path:url(#SVGID_00000178192275085836297230000009597694884987114925_);fill:#539DF8;" points="48.6,39.8 
			50.3,38.9 135.8,205.2 133.7,205.2 		"/>
		<polygon style="clip-path:url(#SVGID_00000178192275085836297230000009597694884987114925_);fill:#529CF8;" points="50.3,38.9 
			52,38.1 137.9,205.2 135.8,205.2 		"/>
		<polygon style="clip-path:url(#SVGID_00000178192275085836297230000009597694884987114925_);fill:#519BF8;" points="52,38.1 
			53.7,37.2 140.1,205.2 137.9,205.2 		"/>
		<polygon style="clip-path:url(#SVGID_00000178192275085836297230000009597694884987114925_);fill:#519AF8;" points="53.7,37.2 
			55.4,36.3 142.2,205.2 140.1,205.2 		"/>
		<polygon style="clip-path:url(#SVGID_00000178192275085836297230000009597694884987114925_);fill:#5099F8;" points="55.4,36.3 
			57.1,35.4 144.4,205.2 142.2,205.2 		"/>
		<polygon style="clip-path:url(#SVGID_00000178192275085836297230000009597694884987114925_);fill:#4F98F7;" points="57.1,35.4 
			58.8,34.6 146.2,204.5 145,205.2 144.4,205.2 		"/>
		
			<rect x="102.4" y="23.6" transform="matrix(0.8893 -0.4572 0.4572 0.8893 -43.0314 60.4311)" style="clip-path:url(#SVGID_00000178192275085836297230000009597694884987114925_);fill:#4E97F7;" width="1.9" height="191.1"/>
		
			<rect x="104.1" y="22.7" transform="matrix(0.8893 -0.4572 0.4572 0.8893 -42.4461 61.1089)" style="clip-path:url(#SVGID_00000178192275085836297230000009597694884987114925_);fill:#4E96F7;" width="1.9" height="191.1"/>
		
			<rect x="105.8" y="21.8" transform="matrix(0.8893 -0.4572 0.4572 0.8893 -41.8609 61.7866)" style="clip-path:url(#SVGID_00000178192275085836297230000009597694884987114925_);fill:#4D95F7;" width="1.9" height="191.1"/>
		
			<rect x="107.5" y="21" transform="matrix(0.8893 -0.4572 0.4572 0.8893 -41.2756 62.4643)" style="clip-path:url(#SVGID_00000178192275085836297230000009597694884987114925_);fill:#4C94F7;" width="1.9" height="191.1"/>
		
			<rect x="109.2" y="20.1" transform="matrix(0.8893 -0.4572 0.4572 0.8893 -40.6903 63.1421)" style="clip-path:url(#SVGID_00000178192275085836297230000009597694884987114925_);fill:#4C93F7;" width="1.9" height="191.1"/>
		
			<rect x="110.9" y="19.2" transform="matrix(0.8893 -0.4572 0.4572 0.8893 -40.105 63.8199)" style="clip-path:url(#SVGID_00000178192275085836297230000009597694884987114925_);fill:#4B92F7;" width="1.9" height="191.1"/>
		
			<rect x="112.5" y="18.3" transform="matrix(0.8893 -0.4572 0.4572 0.8893 -39.5197 64.4976)" style="clip-path:url(#SVGID_00000178192275085836297230000009597694884987114925_);fill:#4A91F7;" width="1.9" height="191.1"/>
		
			<rect x="114.2" y="17.5" transform="matrix(0.8893 -0.4572 0.4572 0.8893 -38.9345 65.1753)" style="clip-path:url(#SVGID_00000178192275085836297230000009597694884987114925_);fill:#4A90F7;" width="1.9" height="191.1"/>
		
			<rect x="115.9" y="16.6" transform="matrix(0.8893 -0.4572 0.4572 0.8893 -38.3492 65.8531)" style="clip-path:url(#SVGID_00000178192275085836297230000009597694884987114925_);fill:#498FF7;" width="1.9" height="191.1"/>
		
			<rect x="117.6" y="15.7" transform="matrix(0.8893 -0.4572 0.4572 0.8893 -37.7639 66.5308)" style="clip-path:url(#SVGID_00000178192275085836297230000009597694884987114925_);fill:#488EF7;" width="1.9" height="191.1"/>
		
			<rect x="119.3" y="14.9" transform="matrix(0.8893 -0.4572 0.4572 0.8893 -37.1787 67.2085)" style="clip-path:url(#SVGID_00000178192275085836297230000009597694884987114925_);fill:#488DF7;" width="1.9" height="191.1"/>
		
			<rect x="121" y="14" transform="matrix(0.8893 -0.4572 0.4572 0.8893 -36.5934 67.8863)" style="clip-path:url(#SVGID_00000178192275085836297230000009597694884987114925_);fill:#478CF7;" width="1.9" height="191.1"/>
		
			<rect x="122.7" y="13.1" transform="matrix(0.8893 -0.4572 0.4572 0.8893 -36.0081 68.564)" style="clip-path:url(#SVGID_00000178192275085836297230000009597694884987114925_);fill:#468AF7;" width="1.9" height="191.1"/>
		
			<rect x="124.4" y="12.2" transform="matrix(0.8893 -0.4572 0.4572 0.8893 -35.4228 69.2418)" style="clip-path:url(#SVGID_00000178192275085836297230000009597694884987114925_);fill:#4589F7;" width="1.9" height="191.1"/>
		
			<rect x="126.1" y="11.4" transform="matrix(0.8893 -0.4572 0.4572 0.8893 -34.8376 69.9195)" style="clip-path:url(#SVGID_00000178192275085836297230000009597694884987114925_);fill:#4588F7;" width="1.9" height="191.1"/>
		
			<rect x="127.8" y="10.5" transform="matrix(0.8893 -0.4572 0.4572 0.8893 -34.2523 70.5972)" style="clip-path:url(#SVGID_00000178192275085836297230000009597694884987114925_);fill:#4487F7;" width="1.9" height="191.1"/>
		
			<rect x="129.5" y="9.6" transform="matrix(0.8893 -0.4572 0.4572 0.8893 -33.667 71.275)" style="clip-path:url(#SVGID_00000178192275085836297230000009597694884987114925_);fill:#4386F7;" width="1.9" height="191.1"/>
		
			<rect x="131.2" y="8.8" transform="matrix(0.8893 -0.4572 0.4572 0.8893 -33.0817 71.9527)" style="clip-path:url(#SVGID_00000178192275085836297230000009597694884987114925_);fill:#4385F7;" width="1.9" height="191.1"/>
		
			<rect x="132.9" y="7.9" transform="matrix(0.8893 -0.4572 0.4572 0.8893 -32.4965 72.6304)" style="clip-path:url(#SVGID_00000178192275085836297230000009597694884987114925_);fill:#4284F7;" width="1.9" height="191.1"/>
		
			<rect x="134.6" y="7" transform="matrix(0.8893 -0.4572 0.4572 0.8893 -31.9112 73.3082)" style="clip-path:url(#SVGID_00000178192275085836297230000009597694884987114925_);fill:#4183F7;" width="1.9" height="191.1"/>
		
			<rect x="136.2" y="6.2" transform="matrix(0.8893 -0.4572 0.4572 0.8893 -31.3259 73.9859)" style="clip-path:url(#SVGID_00000178192275085836297230000009597694884987114925_);fill:#4182F7;" width="1.9" height="191.1"/>
		
			<rect x="137.9" y="5.3" transform="matrix(0.8893 -0.4572 0.4572 0.8893 -30.7406 74.6636)" style="clip-path:url(#SVGID_00000178192275085836297230000009597694884987114925_);fill:#4081F7;" width="1.9" height="191.1"/>
		
			<rect x="139.6" y="4.4" transform="matrix(0.8893 -0.4572 0.4572 0.8893 -30.1554 75.3414)" style="clip-path:url(#SVGID_00000178192275085836297230000009597694884987114925_);fill:#3F80F7;" width="1.9" height="191.1"/>
		
			<rect x="141.3" y="3.5" transform="matrix(0.8893 -0.4572 0.4572 0.8893 -29.5701 76.0191)" style="clip-path:url(#SVGID_00000178192275085836297230000009597694884987114925_);fill:#3F7FF7;" width="1.9" height="191.1"/>
		
			<rect x="143" y="2.7" transform="matrix(0.8893 -0.4572 0.4572 0.8893 -28.9848 76.6968)" style="clip-path:url(#SVGID_00000178192275085836297230000009597694884987114925_);fill:#3E7EF7;" width="1.9" height="191.1"/>
		
			<rect x="144.7" y="1.8" transform="matrix(0.8893 -0.4572 0.4572 0.8893 -28.3996 77.3746)" style="clip-path:url(#SVGID_00000178192275085836297230000009597694884987114925_);fill:#3D7DF6;" width="1.9" height="191.1"/>
		
			<rect x="146.4" y="0.9" transform="matrix(0.8893 -0.4572 0.4572 0.8893 -27.8143 78.0523)" style="clip-path:url(#SVGID_00000178192275085836297230000009597694884987114925_);fill:#3C7CF6;" width="1.9" height="191.1"/>
		
			<rect x="148.1" y="0.1" transform="matrix(0.8893 -0.4572 0.4572 0.8893 -27.229 78.73)" style="clip-path:url(#SVGID_00000178192275085836297230000009597694884987114925_);fill:#3C7BF6;" width="1.9" height="191.1"/>
		
			<rect x="149.8" y="-0.8" transform="matrix(0.8893 -0.4572 0.4572 0.8893 -26.6437 79.4078)" style="clip-path:url(#SVGID_00000178192275085836297230000009597694884987114925_);fill:#3B7AF6;" width="1.9" height="191.1"/>
		
			<rect x="151.5" y="-1.7" transform="matrix(0.8893 -0.4572 0.4572 0.8893 -26.0585 80.0855)" style="clip-path:url(#SVGID_00000178192275085836297230000009597694884987114925_);fill:#3A79F6;" width="1.9" height="191.1"/>
		
			<rect x="153.2" y="-2.5" transform="matrix(0.8893 -0.4572 0.4572 0.8893 -25.4732 80.7632)" style="clip-path:url(#SVGID_00000178192275085836297230000009597694884987114925_);fill:#3A78F6;" width="1.9" height="191.1"/>
		
			<rect x="154.9" y="-3.4" transform="matrix(0.8893 -0.4572 0.4572 0.8893 -24.8879 81.441)" style="clip-path:url(#SVGID_00000178192275085836297230000009597694884987114925_);fill:#3977F6;" width="1.9" height="191.1"/>
		
			<rect x="156.6" y="-4.3" transform="matrix(0.8893 -0.4572 0.4572 0.8893 -24.3026 82.1187)" style="clip-path:url(#SVGID_00000178192275085836297230000009597694884987114925_);fill:#3876F6;" width="1.9" height="191.1"/>
		
			<rect x="158.3" y="-5.2" transform="matrix(0.8893 -0.4572 0.4572 0.8893 -23.7174 82.7965)" style="clip-path:url(#SVGID_00000178192275085836297230000009597694884987114925_);fill:#3875F6;" width="1.9" height="191.1"/>
		<polygon style="clip-path:url(#SVGID_00000178192275085836297230000009597694884987114925_);fill:#3774F6;" points="116.4,5 
			118.1,4.1 205,173.3 205,174.3 203.7,174.9 		"/>
		<polygon style="clip-path:url(#SVGID_00000178192275085836297230000009597694884987114925_);fill:#3673F6;" points="118.1,4.1 
			119.7,3.2 205,169.2 205,173.3 		"/>
		<polygon style="clip-path:url(#SVGID_00000178192275085836297230000009597694884987114925_);fill:#3572F6;" points="119.7,3.2 
			121.4,2.4 205,165 205,169.2 		"/>
		<polygon style="clip-path:url(#SVGID_00000178192275085836297230000009597694884987114925_);fill:#3571F6;" points="121.4,2.4 
			122.2,2 123.4,2 205,160.8 205,165 		"/>
		<polygon style="clip-path:url(#SVGID_00000178192275085836297230000009597694884987114925_);fill:#3470F6;" points="125.5,2 
			205,156.7 205,160.8 123.4,2 		"/>
		<polygon style="clip-path:url(#SVGID_00000178192275085836297230000009597694884987114925_);fill:#336FF6;" points="127.6,2 
			205,152.5 205,156.7 125.5,2 		"/>
		<polygon style="clip-path:url(#SVGID_00000178192275085836297230000009597694884987114925_);fill:#336EF6;" points="129.8,2 
			205,148.3 205,152.5 127.6,2 		"/>
		<polygon style="clip-path:url(#SVGID_00000178192275085836297230000009597694884987114925_);fill:#326DF6;" points="131.9,2 
			205,144.2 205,148.3 129.8,2 		"/>
		<polygon style="clip-path:url(#SVGID_00000178192275085836297230000009597694884987114925_);fill:#316CF6;" points="134.1,2 
			205,140 205,144.2 131.9,2 		"/>
		<polygon style="clip-path:url(#SVGID_00000178192275085836297230000009597694884987114925_);fill:#316BF6;" points="136.2,2 
			205,135.8 205,140 134.1,2 		"/>
		<polygon style="clip-path:url(#SVGID_00000178192275085836297230000009597694884987114925_);fill:#306AF6;" points="138.4,2 
			205,131.7 205,135.8 136.2,2 		"/>
		<polygon style="clip-path:url(#SVGID_00000178192275085836297230000009597694884987114925_);fill:#2F69F6;" points="140.5,2 
			205,127.5 205,131.7 138.4,2 		"/>
		<polygon style="clip-path:url(#SVGID_00000178192275085836297230000009597694884987114925_);fill:#2F68F6;" points="142.6,2 
			205,123.4 205,127.5 140.5,2 		"/>
		<polygon style="clip-path:url(#SVGID_00000178192275085836297230000009597694884987114925_);fill:#2E67F6;" points="144.8,2 
			205,119.2 205,123.4 142.6,2 		"/>
		<polygon style="clip-path:url(#SVGID_00000178192275085836297230000009597694884987114925_);fill:#2D66F6;" points="146.9,2 
			205,115 205,119.2 144.8,2 		"/>
		<polygon style="clip-path:url(#SVGID_00000178192275085836297230000009597694884987114925_);fill:#2C65F6;" points="149.1,2 
			205,110.9 205,115 146.9,2 		"/>
		<polygon style="clip-path:url(#SVGID_00000178192275085836297230000009597694884987114925_);fill:#2C64F6;" points="151.2,2 
			205,106.7 205,110.9 149.1,2 		"/>
		<polygon style="clip-path:url(#SVGID_00000178192275085836297230000009597694884987114925_);fill:#2B63F5;" points="153.3,2 
			205,102.5 205,106.7 151.2,2 		"/>
		<polygon style="clip-path:url(#SVGID_00000178192275085836297230000009597694884987114925_);fill:#2A62F5;" points="155.5,2 
			205,98.4 205,102.5 153.3,2 		"/>
		<polygon style="clip-path:url(#SVGID_00000178192275085836297230000009597694884987114925_);fill:#2A61F5;" points="157.6,2 
			205,94.2 205,98.4 155.5,2 		"/>
		<polygon style="clip-path:url(#SVGID_00000178192275085836297230000009597694884987114925_);fill:#2960F5;" points="159.8,2 
			205,90.1 205,94.2 157.6,2 		"/>
		<polygon style="clip-path:url(#SVGID_00000178192275085836297230000009597694884987114925_);fill:#285FF5;" points="161.9,2 
			205,85.9 205,90.1 159.8,2 		"/>
		<polygon style="clip-path:url(#SVGID_00000178192275085836297230000009597694884987114925_);fill:#285EF5;" points="164,2 
			205,81.7 205,85.9 161.9,2 		"/>
		<polygon style="clip-path:url(#SVGID_00000178192275085836297230000009597694884987114925_);fill:#275DF5;" points="166.2,2 
			205,77.6 205,81.7 164,2 		"/>
		<polygon style="clip-path:url(#SVGID_00000178192275085836297230000009597694884987114925_);fill:#265CF5;" points="168.3,2 
			205,73.4 205,77.6 166.2,2 		"/>
		<polygon style="clip-path:url(#SVGID_00000178192275085836297230000009597694884987114925_);fill:#255BF5;" points="170.5,2 
			205,69.2 205,73.4 168.3,2 		"/>
		<polygon style="clip-path:url(#SVGID_00000178192275085836297230000009597694884987114925_);fill:#255AF5;" points="172.6,2 
			205,65.1 205,69.2 170.5,2 		"/>
		<polygon style="clip-path:url(#SVGID_00000178192275085836297230000009597694884987114925_);fill:#2459F5;" points="174.7,2 
			205,60.9 205,65.1 172.6,2 		"/>
		<polygon style="clip-path:url(#SVGID_00000178192275085836297230000009597694884987114925_);fill:#2358F5;" points="176.9,2 
			205,56.7 205,60.9 174.7,2 		"/>
		<polygon style="clip-path:url(#SVGID_00000178192275085836297230000009597694884987114925_);fill:#2357F5;" points="179,2 
			205,52.6 205,56.7 176.9,2 		"/>
		<polygon style="clip-path:url(#SVGID_00000178192275085836297230000009597694884987114925_);fill:#2256F5;" points="181.2,2 
			205,48.4 205,52.6 179,2 		"/>
		<polygon style="clip-path:url(#SVGID_00000178192275085836297230000009597694884987114925_);fill:#2256F5;" points="205,48.4 
			181.2,2 205,2 		"/>
	</g>
</g>
<g>
	<g>
		<g>
			<path class="st106" d="M276.5,16.1l20.5,26.9l20.6-26.9h9.8v64.4h-10.8V33.4L297,58.6l-0.3,0l-19.5-25.2v47.1h-10.8V16.1H276.5z"
				/>
		</g>
		<g>
			<path class="st106" d="M346.5,80.5h-11.6l24.9-64.4h11.7l25,64.4h-12L380,68h-28.8L346.5,80.5z M365.6,29.7l-0.1,0l-10.6,28.4
				h21.4L365.6,29.7z"/>
		</g>
		<g>
			<path class="st106" d="M415.2,16.1v64.4h-11V16.1H415.2z"/>
		</g>
		<g>
			<path class="st106" d="M471.2,70.3v10.2h-40.8V16.1h11v54.2H471.2z"/>
		</g>
	</g>
	<g>
		<g>
			<path class="st106" d="M277.4,141.2v25.4h-11v-64.4h26.7c7.3,0,12.7,1.8,16.3,5.4c3.5,3.6,5.3,8.3,5.3,14.2
				c0,5.8-1.8,10.5-5.4,14.1c-3.6,3.6-9,5.4-16.1,5.4H277.4z M277.4,131.1h15.8c3.5,0,6.1-0.8,7.8-2.4c1.7-1.6,2.6-3.9,2.6-6.8
				c0-2.9-0.9-5.2-2.6-6.9c-1.8-1.7-4.4-2.5-7.8-2.5h-15.8V131.1z"/>
		</g>
		<g>
			<path class="st106" d="M376.4,166.6h-12.9l-13.1-25.4h-14.8v25.4h-11v-64.4H353c6.9,0,12.2,1.8,15.8,5.4
				c3.6,3.6,5.4,8.3,5.4,14.2c0,4.4-1.1,8.2-3.2,11.4c-2.1,3.2-5.3,5.4-9.4,6.8L376.4,166.6z M360.7,128.5c1.7-1.7,2.5-4,2.5-6.8
				c0-2.8-0.8-5.1-2.5-6.8c-1.7-1.7-4.2-2.5-7.5-2.5h-17.4v18.7h17.4C356.5,131.1,359,130.2,360.7,128.5z"/>
		</g>
		<g>
			<path class="st106" d="M391.6,158.4c-6.2-6.4-9.3-14.4-9.3-24s3.1-17.6,9.3-24c6.2-6.4,14.2-9.6,23.9-9.6
				c9.7,0,17.7,3.2,23.9,9.6c6.2,6.4,9.3,14.4,9.3,24s-3.1,17.6-9.3,24c-6.2,6.4-14.2,9.6-23.9,9.6
				C405.8,168,397.8,164.8,391.6,158.4z M399.9,117.7c-4.1,4.2-6.1,9.8-6.1,16.7c0,6.9,2,12.5,6.1,16.7c4.1,4.2,9.3,6.4,15.6,6.4
				c6.4,0,11.6-2.1,15.6-6.4c4.1-4.2,6.1-9.8,6.1-16.7c0-6.9-2-12.5-6.1-16.7c-4.1-4.2-9.3-6.4-15.6-6.4
				C409.2,111.4,404,113.5,399.9,117.7z"/>
		</g>
		<g>
			<path class="st106" d="M488.3,146.1v-43.9h11v43.5c0,6.7-2,12.1-5.9,16.1c-3.9,4-9.3,6-16,6c-6.6,0-11.9-1.8-15.8-5.5
				c-4-3.7-5.9-8.8-5.9-15.2l0.3-4.2H467c-0.2,1-0.3,2.4-0.3,4.2c0,3.3,1,6,2.9,8c1.9,2,4.5,3,7.8,3c3.5,0,6.2-1,8.1-3.1
				C487.4,152.8,488.3,149.9,488.3,146.1z"/>
		</g>
		<g>
			<path class="st106" d="M558.8,156.5v10.2h-45.3v-64.4h45.3v10.2h-34.3v16.5h32.8v10.2h-32.8v17.4H558.8z"/>
		</g>
		<g>
			<path class="st106" d="M567.7,134.3c0-9.9,3-17.9,9-24.1c6-6.2,13.7-9.3,23.2-9.3c8,0,14.9,2.2,20.5,6.7
				c5.6,4.5,9.1,10.5,10.4,18.1h-11.7c-1.1-4.5-3.3-8-6.8-10.5c-3.4-2.5-7.6-3.8-12.5-3.8c-6.4,0-11.4,2.1-15.1,6.2
				c-3.7,4.1-5.5,9.7-5.5,16.7c0,7,1.8,12.6,5.5,16.8c3.7,4.2,8.7,6.3,15.1,6.3c4.9,0,9.1-1.3,12.5-3.8c3.4-2.5,5.7-6,6.8-10.5h11.7
				c-1.3,7.6-4.8,13.7-10.4,18.1c-5.6,4.5-12.5,6.7-20.5,6.7c-9.4,0-17.2-3.1-23.2-9.3C570.7,152.3,567.7,144.3,567.7,134.3z"/>
		</g>
		<g>
			<path class="st106" d="M680.2,102.2v10.4h-18.7v54h-11v-54h-18.7v-10.4H680.2z"/>
		</g>
	</g>
</g>
</svg>
