<?xml version="1.0" encoding="utf-8"?>
<!-- Generator: Adobe Illustrator 27.0.0, SVG Export Plug-In . SVG Version: 6.00 Build 0)  -->
<svg version="1.1" id="Layer_1" xmlns="http://www.w3.org/2000/svg" xmlns:xlink="http://www.w3.org/1999/xlink" x="0px" y="0px"
	 viewBox="0 0 666 140.7" style="enable-background:new 0 0 666 140.7;" xml:space="preserve">
<style type="text/css">
	.st0{fill:#015256;}
</style>
<g>
	<path class="st0" d="M164.8,120.7c-1.6-8.1-3.2-16.1-4.9-24.2c-0.4-1.9-0.9-3.8-1.3-5.8c-2.3,1.1-4.5,2.1-6.9,2.9
		c-11.6,5.1-23.6,9.5-36.2,11.5c-3.5,0.6-7.1,0.8-10.6,1c-0.5,0-1-0.5-1.5-0.8c0.4-0.4,0.8-0.8,1.2-1.2c0.1-0.2,0.4-0.2,0.6-0.2
		c8.3-2,16-5.4,23.2-10c5.2-3.3,9.9-7.3,14-11.9c4.8-5.5,8.5-11.8,10.9-18.7c2.1-6.1,2.6-12.4,1.9-18.8c-1.3-11-4.5-21.1-12.7-29.1
		c-2.3-2.4-4.8-4.4-7.7-6.1c-8-4.8-16.7-6.9-26-7.4C103.5,1.7,98.3,2.1,93,3.1c-6.1,1.1-12.1,2.8-17.8,5.3c-8.1,3.5-15.3,8.3-22,14
		c-8.1,7.1-14.9,15.1-20.6,24.1c-2.8,4.4-5.4,9.2-8,13.8c-1.9,3.5-3.7,7.1-5.2,10.7c-2.8,6.7-5.5,13.5-7.8,20.3
		c-2.4,7.5-4.1,15-6.2,22.5c-0.3,1,0,1.4,1.1,1.4c3.7,0,7.6,0.2,11.4,0.2c12,0.1,24,0.2,36,0.4c1.2,0,1.5-0.5,1.6-1.5
		c0.7-6.2,1.3-12.4,2.3-18.5c1.5-8.9,4-17.4,8.1-25.6c2.7-5.5,6-10.6,10.8-14.5c4.8-4,10.5-6.3,16.9-6c5.3,0.2,9.3,2.6,11.8,7.4
		c1.6,3.1,1.8,6.5,1.1,10c-0.9,4.3-3.4,7.7-6.5,10.7c-4.4,4.2-9.7,7.3-14.9,10.3c-4.6,2.7-9.5,5-13.5,8.7c-5.3,4.9-7.8,11-6.8,18.2
		c1,7.3,5,12.5,11,16.3c5.3,3.4,11.2,5.2,17.3,6.3c8.8,1.6,17.1,1.6,26.4,1c8.7-0.6,17.1-1.9,25.5-3.9c6.7-1.6,13.5-3.6,19.8-6.4
		c1.1-0.5,1.4-1.1,1.2-2.2C165.5,124.2,165.2,122.4,164.8,120.7z"/>
	<path class="st0" d="M275.7,94.4c-2.4-3.9-5.1-7.7-8.3-11.2c-3-3.5-6.2-6.1-9.7-8c8.1-1.8,14.1-4.7,18-9c3.9-4.2,5.9-9.8,5.9-16.8
		c0-3.3-0.6-6.6-1.8-9.7c-1.1-3-2.9-5.7-5.1-8.1c-2.3-2.3-4.9-4.1-7.9-5.3c-2.5-1.1-5.2-1.8-8.3-2.2c-3-0.3-6.7-0.5-11-0.5h-31
		c-4.1,0-7.2,0.9-9,2.7c-1.8,1.9-2.7,4.8-2.7,9v72.3c0,3.8,0.8,6.6,2.5,8.7c1.7,1.9,4,2.9,7.1,2.9c2.8,0,5.1-0.9,6.8-2.8
		c1.7-1.8,2.6-4.8,2.6-8.8V77.5h6.6c3.3,0,6.1,0.4,8.7,1.4c2.2,0.9,4.4,2.6,6.5,5c2.2,2.5,4.6,6,7.4,10.7l7.7,12.7
		c1.7,2.9,3.2,5.2,4.2,6.7c1,1.5,2.3,2.8,3.7,3.8c1.4,1,3.2,1.5,5.3,1.5c1.8,0,3.3-0.4,4.7-1.1c1.3-0.7,2.4-1.7,3.2-2.9
		c0.8-1.2,1.2-2.5,1.2-3.7c0-1.2-0.7-3.3-2-6.5C280.1,102,278.1,98.4,275.7,94.4z M252.7,62.7c-3.1,0.8-7.1,1.2-11.6,1.2h-17V38
		h17.5c6.5,0,10.9,0.4,13.2,1.5c2.4,1,4.2,2.4,5.5,4.4c1.3,1.9,2,4.2,2,6.8c0,3.3-0.9,5.9-2.5,7.9C258.2,60.6,255.8,61.9,252.7,62.7
		z"/>
	<path class="st0" d="M348,86.1c2.5-1.3,3.8-4.1,3.8-8.6c0-4.7-1.2-9.5-3.6-14s-6-8.3-11-11.2S326.5,48,319.6,48
		c-5.3,0-10.1,0.8-14.4,2.5c-4.3,1.7-8,4.1-10.9,7.3c-2.9,3.1-5.2,6.9-6.7,11.4c-1.5,4.4-2.3,9.3-2.3,14.4c0,11,3.1,19.6,9.4,26.1
		c6.2,6.4,14.9,9.7,26.2,9.7c4.9,0,9.3-0.6,13.1-1.9c3.8-1.3,6.9-2.9,9.5-4.8c2.5-1.9,4.4-3.9,5.6-6c1.2-2.1,1.8-3.9,1.8-5.5
		c0-1.7-0.6-3.1-1.7-4.1c-1.1-1-2.5-1.5-4.3-1.5c-1.6,0-2.9,0.3-3.8,1.1c-2.2,2-3.9,3.6-5.3,4.8c-1.4,1.1-2.9,2.3-4.5,3.3
		c-1.6,1-3.3,1.8-5,2.3s-3.6,0.7-5.7,0.7c-3.1,0-5.9-0.8-8.6-2.3c-2.6-1.5-4.7-3.8-6.2-6.8c-1.6-3-2.4-6.5-2.4-10.5h34.2
		C341.9,88,345.5,87.4,348,86.1z M303.1,78.1c0.6-5.9,2.3-10.4,5-13.3c2.8-3,6.4-4.5,10.8-4.5c4.6,0,8.3,1.4,11.1,4.4
		c2.8,2.9,4.4,7.5,4.8,13.4H303.1z"/>
	<path class="st0" d="M407.4,48.2c-2.3,0-4.1,0.7-5.2,2.1c-1.1,1.3-2.3,3.7-3.5,7.1l-15.3,41.5l-14.2-39.8c-1.3-4-2.5-6.7-3.6-8.4
		c-1.1-1.7-3.1-2.5-6-2.5c-1.4,0-2.8,0.4-4.1,1.1c-1.3,0.8-2.3,1.7-3,2.9c-0.7,1.1-1.1,2.3-1.1,3.5c0,0.7,0.1,1.6,0.4,2.7
		c0.3,1,0.6,2.1,1,3.1c0.4,1.1,0.8,2.1,1.2,3.1l16.7,41.2c1.6,3.9,2.8,6.6,3.5,8c0.7,1.3,1.7,2.6,3.2,3.7c1.5,1.1,3.4,1.7,5.9,1.7
		c1.9,0,3.5-0.4,4.9-1.1c1.4-0.7,2.5-1.7,3.4-3c0.9-1.3,1.8-2.9,2.5-4.7c0.7-1.8,1.3-3.3,1.8-4.5l16.8-41.5c0.4-1.2,0.8-2.2,1.2-3.1
		s0.7-1.9,1-2.9c0.3-1,0.4-1.9,0.4-2.7c0-2-0.8-3.7-2.3-5.2C411.5,48.9,409.6,48.2,407.4,48.2z"/>
	<path class="st0" d="M429.9,48.1c-2.5,0-4.6,0.9-6.2,2.6c-1.6,1.8-2.4,4.4-2.4,7.9v50.2c0,3.4,0.8,6,2.4,7.9
		c1.6,1.8,3.7,2.7,6.2,2.7c2.5,0,4.6-0.9,6.3-2.7c1.7-1.8,2.5-4.4,2.5-8V58.1c0-3.1-0.8-5.5-2.5-7.4C434.6,49,432.4,48.1,429.9,48.1
		z"/>
	<path class="st0" d="M423.9,37.7c1.7,1.5,3.8,2.2,6.2,2.2c2.4,0,4.4-0.7,6-2.2c1.7-1.5,2.5-3.6,2.5-6.3c0-2.8-0.9-4.9-2.6-6.3
		c-1.8-1.5-3.8-2.2-6-2.2c-2.3,0-4.3,0.8-6.1,2.4c-1.7,1.6-2.6,3.6-2.6,6.1C421.3,34.1,422.2,36.2,423.9,37.7z"/>
	<path class="st0" d="M504.6,52.4c-4.4-2.7-9.5-4.1-15.3-4.1c-5,0-9.3,0.9-12.7,2.7s-6.7,4.4-10.1,7.9V32.1c0-3.2-0.6-5.6-2.1-7.4
		c-1.5-1.7-3.5-2.6-6.2-2.6c-2.6,0-4.6,0.9-6,2.7c-1.4,1.8-2.1,4.5-2.1,8.1v76.3c0,3.3,0.7,5.7,2.2,7.5c1.5,1.7,3.4,2.5,5.9,2.5
		c2.4,0,4.4-0.8,6-2.5c1.6-1.7,2.4-4.1,2.4-7.5v-1.7c1.9,2.2,3.4,3.9,4.6,5c1.1,1.1,2.5,2.2,4.2,3.2c1.6,1,3.6,1.9,6,2.5
		c2.3,0.7,4.8,1,7.6,1c4.4,0,8.5-0.8,12.1-2.6c3.7-1.8,6.8-4.3,9.4-7.6c2.5-3.2,4.5-7.1,5.8-11.5c1.3-4.4,2-9.3,2-14.6
		c0-7.2-1.2-13.4-3.6-18.6C512.3,59.2,509,55.2,504.6,52.4z M495.9,100.1c-3.2,3.8-6.9,5.7-11.4,5.7c-5.1,0-9.3-1.9-12.5-5.6
		c-3.1-3.8-4.7-9.2-4.7-16.1c0-4.7,0.8-8.8,2-12.2c1.5-3.4,3.5-6,6.1-7.9c2.6-1.8,5.6-2.7,9-2.7s6.1,0.9,8.6,2.7
		c2.4,1.8,4.3,4.4,5.6,7.8s2,7.3,2,11.9C500.6,90.8,499.1,96.3,495.9,100.1z"/>
	<path class="st0" d="M585.4,86.1c2.5-1.3,3.8-4.1,3.8-8.6c0-4.7-1.2-9.5-3.6-14s-6-8.3-11-11.2c-4.9-2.9-10.8-4.3-17.6-4.3
		c-5.3,0-10.1,0.8-14.4,2.5c-4.3,1.7-8,4.1-10.9,7.3c-2.9,3.1-5.2,6.9-6.7,11.4c-1.5,4.4-2.3,9.3-2.3,14.4c0,11,3.1,19.6,9.4,26.1
		c6.2,6.4,14.9,9.7,26.2,9.7c4.9,0,9.3-0.6,13.1-1.9c3.8-1.3,6.9-2.9,9.5-4.8c2.5-1.9,4.4-3.9,5.6-6c1.2-2.1,1.8-3.9,1.8-5.5
		c0-1.7-0.6-3.1-1.7-4.1c-1.1-1-2.5-1.5-4.3-1.5c-1.6,0-2.9,0.3-3.8,1.1c-2.2,2-3.9,3.6-5.3,4.8c-1.4,1.1-2.9,2.3-4.5,3.3
		s-3.3,1.8-5,2.3c-1.7,0.5-3.6,0.7-5.7,0.7c-3.1,0-5.9-0.8-8.6-2.3c-2.6-1.5-4.7-3.8-6.2-6.8c-1.6-3-2.4-6.5-2.4-10.5h34.2
		C579.3,88,582.8,87.4,585.4,86.1z M540.5,78.1c0.6-5.9,2.3-10.4,5-13.3c2.8-3,6.4-4.5,10.8-4.5c4.6,0,8.3,1.4,11.1,4.4
		c2.8,2.9,4.4,7.5,4.8,13.4H540.5z"/>
	<path class="st0" d="M653.6,95.4c-1.6,0-2.9,0.3-3.8,1.1c-2.2,2-3.9,3.6-5.3,4.8c-1.4,1.1-2.9,2.3-4.5,3.3c-1.6,1-3.3,1.8-5,2.3
		c-1.7,0.5-3.6,0.7-5.7,0.7c-3.1,0-5.9-0.8-8.6-2.3c-2.6-1.5-4.7-3.8-6.2-6.8c-1.6-3-2.4-6.5-2.4-10.5h34.2c4.6,0,8.2-0.6,10.7-1.9
		c2.5-1.3,3.8-4.1,3.8-8.6c0-4.7-1.2-9.5-3.6-14s-6-8.3-11-11.2S635.3,48,628.4,48c-5.3,0-10.1,0.8-14.4,2.5
		c-4.3,1.7-8,4.1-10.9,7.3s-5.2,6.9-6.7,11.4c-1.5,4.4-2.3,9.3-2.3,14.4c0,11,3.1,19.6,9.4,26.1c6.2,6.4,14.9,9.7,26.2,9.7
		c4.9,0,9.3-0.6,13.1-1.9c3.8-1.3,6.9-2.9,9.5-4.8c2.5-1.9,4.4-3.9,5.6-6c1.2-2.1,1.8-3.9,1.8-5.5c0-1.7-0.6-3.1-1.7-4.1
		C656.8,95.9,655.4,95.4,653.6,95.4z M617,64.8c2.8-3,6.4-4.5,10.8-4.5c4.6,0,8.3,1.4,11.1,4.4c2.8,2.9,4.4,7.5,4.8,13.4h-31.7
		C612.5,72.2,614.2,67.8,617,64.8z"/>
</g>
</svg>
